PathFileType	4	(X/Y/Z)	Patient4_TMGait_0pt7_02_right_41.trc.trc
DataRate	CameraRate	NumFrames	NumMarkers	Units	OrigDataRate	OrigDataStartFrame	OrigNumFrames
88.607594936709	88.607594936709	4	33	mm	88.607594936709	36	       141
Frame#	Time	Sacral			L.Shoulder			Chest			R.Shoulder			Neck			R.ASIS			L.ASIS			R.Thigh.Superior			R.Thigh.Lateral			R.Thigh.Inferior			R.Patella			L.Thigh.Superior			L.Thigh.Lateral			L.Thigh.Inferior			L.Patella			L.Shank.Superior			L.Shank.Lateral			L.Shank.Inferior			R.Shank.Superior			R.Shank.Lateral			R.Shank.Inferior			R.Heel			R.Midfoot.Superior			R.Midfoot.Lateral			R.Toe			L.Heel			L.Midfoot.Lateral			L.Midfoot.Superior			L.Toe			L.Elbow			L.Wrist			R.Elbow			R.Wrist			
		X1	Y1	Z1	X2	Y2	Z2	X3	Y3	Z3	X4	Y4	Z4	X5	Y5	Z5	X6	Y6	Z6	X7	Y7	Z7	X8	Y8	Z8	X9	Y9	Z9	X10	Y10	Z10	X11	Y11	Z11	X12	Y12	Z12	X13	Y13	Z13	X14	Y14	Z14	X15	Y15	Z15	X16	Y16	Z16	X17	Y17	Z17	X18	Y18	Z18	X19	Y19	Z19	X20	Y20	Z20	X21	Y21	Z21	X22	Y22	Z22	X23	Y23	Z23	X24	Y24	Z24	X25	Y25	Z25	X26	Y26	Z26	X27	Y27	Z27	X28	Y28	Z28	X29	Y29	Z29	X30	Y30	Z30	X31	Y31	Z31	X32	Y32	Z32	X33	Y33	Z33	

36	46.815000000000	741.839362986894	996.272598473338	537.030646277231	937.259871505021	1415.582102989029	347.257089975631	1041.341693909041	1338.174047789415	505.375760124324	969.497596238087	1420.819692493722	679.691185275684	950.311040337962	1476.781774340218	499.836184201488	971.688692407036	929.892343197773	651.716540638474	954.377418650651	945.299764480542	375.465708580043	1041.537022362455	750.085821296267	624.591732957407	977.191148159075	629.391664134477	680.091087779776	1066.016683685869	591.692582817869	602.556614912820	1082.273517671014	500.651858281045	608.860075530620	996.545438309617	730.325212085322	397.282543558491	911.793349572859	616.323228087973	327.794083430838	1002.656592910117	531.030756563837	379.625394708512	993.779007836171	443.552033431600	373.631798675319	919.631993093086	389.400184889977	370.807001369306	773.213380961402	360.595921462963	328.874856693900	750.317173766175	234.363168298480	384.829460425333	1055.825007907612	408.940959631161	612.600036937592	987.392458752464	300.456312751964	670.439815495696	1036.073134552579	209.167933260796	605.925143311002	907.790265857839	43.100979407832	568.915509994540	1079.436170428530	98.812444813491	606.726544440255	990.788370237481	36.685165427250	643.264243183303	1198.929734896333	46.532522953179	633.010368178643	555.378685705795	179.614126779702	430.613041152302	607.626372938095	137.905546207845	345.073941801362	713.475534580314	141.234469787948	362.140730375555	785.769524441748	35.550208867512	323.077603625099	921.650665655631	1076.625560061711	211.049953101880	1161.012733865923	1001.860720812279	262.309730093026	876.549505079858	1081.956079097140	791.968869703754	889.675655244135	819.823210400666	782.660760702722	
37	46.826285714286	741.787863304798	997.659964844396	540.337435359932	935.276012323403	1416.924647052877	349.110055623511	1040.668322392905	1339.798545318734	506.453692671127	970.149538041055	1422.353126367045	681.340144442741	949.574499009694	1478.254709649440	501.630561595241	971.926049010875	931.558620518087	653.559295548035	953.164820489162	946.511498682512	377.525635421417	1039.514207290835	749.368460335680	627.403751745165	973.675332730461	629.711172917143	682.113805563669	1061.811345184006	591.049820938990	604.254222826804	1077.005100161911	499.943457415694	610.453539802437	1000.757412406071	734.732927937306	398.773547887531	919.722943496938	618.704880687999	328.813382961279	1013.536172804734	535.673079930659	379.992214246230	1006.220881171324	447.225619383708	373.700512453765	930.951075513542	392.833432011142	371.272697800129	783.415149245893	367.672357445301	330.430404868510	758.031084845614	241.853207784220	386.210275718369	1049.846604340559	408.593689465738	614.061995367916	980.695940053395	300.378509274566	671.529397766970	1028.917473865141	209.015691554421	606.786840761728	900.025066630663	43.020841459890	569.234137554541	1071.577011397652	98.688757940398	607.125833107877	983.058075120192	36.595403917891	643.540656646268	1191.140138419922	46.691164520873	633.292663873840	562.030556263248	193.114998317645	433.446920436169	612.199951844328	150.056089862403	347.161124986086	718.595527754856	149.045435626881	363.530898502167	786.301233175931	38.494382133225	322.948932812985	914.032846194016	1076.109969762515	216.970362528467	1149.018097857051	983.444202317359	263.741594985938	885.592344131825	1081.457186483720	795.478741688794	909.308003858673	819.971645667057	786.187368558777	
38	46.837571428571	741.627790285081	999.152037924595	543.447647545415	933.040147335201	1418.299037079665	350.832907734093	1039.869476654092	1341.504203829629	507.325902045354	970.764022204084	1423.944952378278	682.840496996711	948.657802466801	1479.779245222718	503.308479301262	971.974326276725	933.181128727007	655.287646603348	951.668598477687	947.627945648694	379.585543793521	1037.055826664937	748.607660115150	629.888748254813	969.786519255919	630.030602083657	684.001933335672	1057.142485001026	590.378996321989	605.764824062454	1071.229171348175	499.256705056553	611.900917876399	1004.613489440661	739.402950287653	400.149309120563	927.108025586910	621.578334909045	329.728099691937	1023.756654303368	540.893163934629	380.275631266349	1018.188387424507	451.591486224485	373.736099599926	942.091909842026	396.772685760021	371.651881594246	793.695606467620	374.497969881481	331.847286428860	766.430911233244	249.023676658940	387.458336768479	1043.452023362046	408.284215175268	615.416252574678	973.684195891160	300.293710070069	672.514218842430	1021.585732983820	208.904020318242	607.595593179185	892.243595457814	42.961727837900	569.514106931486	1063.736662758273	98.592633658142	607.508032200230	975.297768777450	36.504498913609	643.786288812087	1183.321125515739	46.818494995451	633.556692964170	569.858547082089	204.859412472236	436.105328275077	618.269082801225	160.955552586594	349.115605874005	724.969609300903	156.620285696133	364.806031230637	789.028955077385	42.306368825405	322.768904779696	906.429979860788	1075.718592612505	222.874718882485	1135.472636123449	965.014143995524	264.982404865685	894.723844884508	1081.329418400876	799.009598876405	929.647270294991	820.999254469157	789.549018898749	
39	46.848857142857	741.337344967378	1000.722643613830	546.336809811808	930.618442096021	1419.664063505504	352.430809846625	1038.970864140398	1343.229083607946	508.016130092154	971.359926490475	1425.572382918944	684.192906699973	947.593911367990	1481.322360845131	504.865590447829	971.834818199328	934.725732841459	656.942374384857	949.944520158371	948.661355557751	381.662273029233	1034.263409898040	747.878818244448	632.013318649801	965.621647862052	630.359414916784	685.734261642548	1052.146431331782	589.709498398983	607.108793031007	1065.082993411950	498.611522075782	613.195179742459	1008.072235815301	744.270278540872	401.490650212412	933.965531751210	624.878105682392	330.540977625154	1033.305906938485	546.603100178535	380.523111899825	1029.652484309969	456.561111143815	373.728037414388	953.028835118719	401.128319809756	371.931749565303	804.007393556794	380.915459195074	333.067910541430	775.510337399446	255.674562135674	388.504424554682	1036.765365818661	408.019455606802	616.644800046525	966.456103297925	300.227780577557	673.394062610372	1014.124488565503	208.831556128384	608.331385892397	884.418578195745	42.936227836228	569.754802887320	1055.901076215001	98.527516639349	607.860560561697	967.483761772375	36.423366512053	643.996537660487	1175.458125359456	46.895412016072	633.790312749200	578.754061752878	214.586604637807	438.433065932973	625.796495350368	170.276072095008	350.824653548320	732.623630153367	163.668460759705	365.889039497322	794.068761247300	46.750674296039	322.567440975690	898.849101050904	1075.432254630805	228.707066846949	1120.289754480724	946.801078491480	266.037609147737	903.953923062797	1081.529741101754	802.503226248091	950.605271221402	822.959903878544	792.656217787224	
